<svg width="16" height="16" viewBox="0 0 16 16" fill="none" xmlns="http://www.w3.org/2000/svg">
<g clip-path="url(#clip0_2228_17)">
<rect x="3" y="3" width="11" height="10" fill="black"/>
<path d="M2.83325 0.200012C1.26663 0.200012 0 1.46676 0 3.03351V12.9665C0 14.5333 1.26663 15.8 2.83325 15.8H13.1667C14.7334 15.8 16 14.5333 16 12.9665V3.03351C16 1.46676 14.7334 0.200012 13.1667 0.200012H2.83325ZM5.73338 4.16676C6.28 4.16676 6.73338 4.23326 7.10663 4.37326C7.44132 4.48699 7.74649 4.6738 8 4.92014C8.21478 5.13566 8.38077 5.39479 8.48675 5.68001C8.58675 5.96001 8.63988 6.24664 8.63988 6.54664C8.63988 7.11997 8.50654 7.5933 8.23987 7.96664C7.97337 8.33989 7.60012 8.62001 7.16675 8.78001C6.71337 8.94676 6.21337 9.00664 5.66675 9.00664C5.50675 9.00664 5.39988 9.00664 5.33325 9.00001C5.26663 8.99339 5.17325 8.99339 5.04663 8.99339V11.1334C5.05325 11.18 5.02 11.2201 4.97337 11.2268H3.68C3.62675 11.2268 3.60025 11.1999 3.60025 11.1399V4.28001C3.60025 4.23339 3.62025 4.20651 3.66687 4.20651C3.78025 4.20651 3.88687 4.20651 4.04012 4.20001C4.20012 4.19326 4.36675 4.19351 4.54675 4.18676C4.72675 4.18014 4.92012 4.18001 5.12675 4.17339C5.3335 4.16664 5.53338 4.16676 5.73338 4.16676ZM5.88212 5.47976C5.84809 5.47911 5.81404 5.4792 5.78 5.48001C5.60675 5.48001 5.45337 5.48014 5.32662 5.48689C5.19337 5.48014 5.10013 5.48676 5.0535 5.49339V7.73339C5.14675 7.74014 5.23325 7.74664 5.31325 7.74664H5.66675C5.92675 7.74664 6.18675 7.70664 6.43337 7.62664C6.64675 7.56664 6.83338 7.43989 6.98 7.27326C7.12 7.10651 7.18675 6.88001 7.18675 6.58664C7.19288 6.37836 7.13974 6.17263 7.0335 5.99339C6.92013 5.82014 6.76 5.68664 6.56663 5.61339C6.35075 5.52589 6.11962 5.48439 5.88212 5.47976ZM11.4734 5.82014C11.7468 5.82014 12.0268 5.83989 12.3 5.87989C12.5 5.90651 12.6933 5.96014 12.8733 6.03351C12.9 6.04014 12.9266 6.06664 12.9399 6.09326C12.9466 6.11989 12.9534 6.14664 12.9534 6.17326V7.26001C12.9534 7.27295 12.9505 7.28572 12.9447 7.29729C12.9389 7.30886 12.9305 7.31892 12.9201 7.32664C12.8601 7.34001 12.8268 7.34001 12.8001 7.32664C12.6001 7.22001 12.3866 7.14676 12.1599 7.10014C11.9132 7.04676 11.6666 7.01326 11.4134 7.01326C11.28 7.00651 11.1399 7.02676 11.0133 7.06001C10.9265 7.08001 10.8533 7.12676 10.8066 7.19339C10.7734 7.24676 10.7534 7.31339 10.7534 7.37339C10.7534 7.43339 10.7801 7.49339 10.8201 7.54664C10.8801 7.62001 10.96 7.68014 11.0466 7.72689C11.2012 7.80679 11.3592 7.88006 11.52 7.94651C11.88 8.06651 12.2266 8.23339 12.5466 8.43339C12.7666 8.57339 12.9466 8.76014 13.0732 8.98676C13.1805 9.19939 13.2332 9.43533 13.2268 9.67339C13.2322 9.98852 13.1414 10.2978 12.9665 10.56C12.7806 10.8261 12.5212 11.0323 12.22 11.1533C11.8933 11.2933 11.4933 11.3666 11.0133 11.3666C10.7065 11.3666 10.4067 11.34 10.1067 11.28C9.87162 11.2394 9.64294 11.1676 9.42675 11.0666C9.38013 11.04 9.34662 10.9933 9.35325 10.9399V9.78001C9.35325 9.76001 9.35988 9.73326 9.37988 9.72001C9.39988 9.70664 9.41987 9.71351 9.43987 9.72676C9.69667 9.87825 9.97565 9.98851 10.2666 10.0535C10.52 10.1201 10.7868 10.1534 11.0535 10.1534C11.3068 10.1534 11.4867 10.12 11.6067 10.06C11.7134 10.0134 11.7866 9.90001 11.7866 9.78001C11.7866 9.68676 11.7334 9.59989 11.6266 9.51314C11.52 9.42651 11.3 9.32664 10.9734 9.20001C10.6382 9.08197 10.3199 8.92061 10.0266 8.72001C9.81772 8.57116 9.64465 8.37758 9.52 8.15339C9.41361 7.94283 9.36096 7.70922 9.36675 7.47339C9.36675 7.18676 9.44663 6.91339 9.59325 6.66676C9.75988 6.40014 10.0067 6.18676 10.2935 6.05351C10.6067 5.89351 10.9999 5.82014 11.4734 5.82014Z" fill="white"/>
</g>
<defs>
<clipPath id="clip0_2228_17">
<rect width="16" height="16" fill="white"/>
</clipPath>
</defs>
</svg>
